<?xml version="1.0" encoding="UTF-8"?>
<!-- Generator: Adobe Illustrator 29.6.1, SVG Export Plug-In . SVG Version: 9.03 Build 0) -->
<svg version="1.2" baseProfile="tiny-ps" id="Layer_1" xmlns="http://www.w3.org/2000/svg" xmlns:xlink="http://www.w3.org/1999/xlink" viewBox="0 0 85.04 85.04" xml:space="preserve">
    <title>Company title</title>
    <g>
        <path fill="#00A9D6" d="M9.36,47.59h5.73v-3.94c0-0.39,0.04-0.75,0.12-1.09c0.08-0.34,0.21-0.64,0.38-0.89
		c0.17-0.25,0.41-0.46,0.69-0.6c0.29-0.15,0.65-0.22,1.09-0.22c0.44,0,0.8,0.07,1.09,0.22c0.29,0.15,0.52,0.35,0.69,0.6
		c0.17,0.25,0.3,0.55,0.38,0.89c0.08,0.34,0.12,0.7,0.12,1.09v3.98c0,0.68-0.12,1.29-0.35,1.83c-0.24,0.54-0.55,1.01-0.96,1.4
		c-0.4,0.39-0.88,0.69-1.44,0.9c-0.56,0.21-1.16,0.31-1.81,0.31H9.34v4.24c0,0.38-0.04,0.75-0.12,1.09
		c-0.08,0.34-0.21,0.64-0.38,0.89c-0.17,0.25-0.41,0.45-0.69,0.6c-0.29,0.15-0.65,0.22-1.09,0.22c-0.44,0-0.8-0.07-1.09-0.22
		c-0.29-0.15-0.52-0.35-0.69-0.6c-0.17-0.25-0.3-0.55-0.38-0.89c-0.08-0.34-0.12-0.7-0.12-1.08v-4.28c0-0.68,0.12-1.29,0.35-1.83
		c0.24-0.54,0.56-1.01,0.97-1.4c0.41-0.39,0.89-0.69,1.45-0.9C8.11,47.69,8.72,47.59,9.36,47.59z M5.36,41.57
		c0.38-0.47,0.95-0.71,1.7-0.71c0.56,0,1.02,0.13,1.39,0.39l0.31,0.31c0.38,0.49,0.58,1.19,0.58,2.09v2.78
		c-1.2-0.02-2.18,0.29-2.92,0.91c-0.74,0.62-1.29,1.42-1.64,2.38v-6.06C4.78,42.77,4.97,42.07,5.36,41.57z M15.1,53.19
		c1.2,0.02,2.18-0.28,2.93-0.89c0.75-0.61,1.29-1.39,1.62-2.35v6.33c0,0.38-0.04,0.75-0.12,1.09c-0.08,0.34-0.21,0.64-0.38,0.89
		c-0.17,0.25-0.41,0.45-0.69,0.6s-0.65,0.22-1.09,0.22c-0.56,0-1.02-0.13-1.39-0.39l-0.31-0.31c-0.38-0.44-0.58-1.13-0.58-2.09
		V53.19z" />
        <path fill="#00A9D6" d="M46.69,55.21c0.19-0.4,0.41-0.68,0.65-0.82c0.24-0.15,0.51-0.22,0.81-0.22c0.31,0,0.66,0.05,1.03,0.16
		c0.38,0.1,0.79,0.21,1.24,0.33c0.45,0.11,0.94,0.21,1.47,0.29s1.09,0.09,1.7,0.04c0.45-0.03,0.82-0.14,1.1-0.3
		c0.28-0.17,0.42-0.48,0.42-0.93c0-0.28-0.08-0.51-0.24-0.68c-0.16-0.17-0.37-0.32-0.64-0.45c-0.27-0.12-0.58-0.23-0.94-0.33
		c-0.36-0.1-0.75-0.2-1.17-0.3c-0.33-0.09-0.62-0.24-0.88-0.47c-0.25-0.23-0.45-0.5-0.6-0.81c-0.15-0.31-0.24-0.65-0.26-1.01
		c-0.03-0.36,0.02-0.71,0.14-1.06c0.23-0.7,0.54-1.27,0.94-1.73c0.19,0.02,0.53,0.07,1.01,0.16c0.48,0.09,1.03,0.23,1.64,0.42
		c0.61,0.19,1.24,0.45,1.9,0.79s1.26,0.75,1.81,1.24s1,1.1,1.36,1.79c0.36,0.7,0.54,1.51,0.54,2.44c0,1.1-0.2,2.02-0.6,2.75
		c-0.4,0.73-0.93,1.33-1.58,1.78c-0.65,0.45-1.39,0.78-2.21,0.97c-0.82,0.19-1.66,0.29-2.51,0.29c-0.94,0-1.84-0.09-2.7-0.27
		s-1.59-0.42-2.2-0.72c-0.65-0.31-1.09-0.76-1.34-1.35C46.35,56.6,46.38,55.94,46.69,55.21z M50.07,40.91
		c0.86-0.3,1.79-0.45,2.8-0.45c0.77,0,1.57,0.06,2.4,0.17c0.83,0.11,1.56,0.31,2.19,0.59c0.63,0.28,1.09,0.67,1.39,1.17
		c0.3,0.5,0.29,1.12-0.03,1.87c-0.33,0.8-0.94,1.2-1.83,1.2c-0.26,0-0.52-0.03-0.77-0.1c-0.25-0.07-0.53-0.14-0.82-0.21
		c-0.3-0.07-0.63-0.13-1-0.18c-0.37-0.05-0.8-0.06-1.31-0.03c-0.77,0.04-1.42,0.27-1.95,0.69c-0.53,0.43-0.93,0.96-1.19,1.58
		c-0.26,0.63-0.38,1.31-0.35,2.04c0.03,0.73,0.21,1.42,0.56,2.07c-0.35-0.17-0.73-0.4-1.14-0.68c-0.41-0.28-0.73-0.53-0.96-0.76
		c-0.61-0.61-1.03-1.36-1.27-2.24c-0.24-0.88-0.27-1.76-0.1-2.64c0.17-0.88,0.53-1.7,1.09-2.45C48.33,41.81,49.09,41.26,50.07,40.91
		z" />
        <path fill="#00A9D6" d="M61.31,56.31V45c0-1.2,0.27-2.2,0.82-2.97c0.55-0.78,1.39-1.17,2.53-1.17c0.54,0,1.02,0.1,1.44,0.3
		c0.42,0.2,0.79,0.48,1.1,0.84c0.31,0.36,0.59,0.78,0.82,1.27c0.24,0.49,0.44,1.01,0.62,1.57l0.94,2.88
		c0.12,0.37,0.25,0.74,0.38,1.11c0.13,0.38,0.25,0.73,0.35,1.06c0.1,0.33,0.2,0.62,0.27,0.86c0.08,0.24,0.14,0.43,0.17,0.55
		c0.4,1.27,0.66,2.43,0.77,3.47c0.11,1.04,0.05,1.98-0.2,2.81c-0.1,0.33-0.28,0.58-0.51,0.75c-0.24,0.17-0.49,0.25-0.77,0.25
		c-0.26,0-0.48-0.06-0.67-0.18c-0.18-0.12-0.34-0.28-0.46-0.47c-0.12-0.19-0.22-0.4-0.3-0.62c-0.08-0.22-0.15-0.43-0.22-0.64
		l-2.54-7.7v7.33c0,0.89-0.18,1.58-0.55,2.07c-0.37,0.49-0.94,0.73-1.73,0.73c-0.79,0-1.36-0.24-1.73-0.73
		C61.49,57.89,61.31,57.2,61.31,56.31z M71.36,49.71l0.92-2.83l0.68-2.04c0.16-0.49,0.34-0.97,0.55-1.45
		c0.21-0.48,0.47-0.91,0.79-1.28c0.31-0.38,0.68-0.68,1.11-0.9c0.43-0.23,0.94-0.34,1.53-0.34c0.61,0,1.13,0.11,1.56,0.34
		c0.43,0.23,0.77,0.53,1.03,0.92c0.26,0.38,0.45,0.82,0.58,1.32c0.12,0.5,0.18,1.02,0.18,1.56v11.31c0,0.38-0.04,0.75-0.12,1.09
		c-0.08,0.34-0.21,0.64-0.39,0.89c-0.18,0.25-0.42,0.45-0.71,0.6c-0.29,0.15-0.64,0.22-1.06,0.22c-0.44,0-0.8-0.07-1.09-0.22
		c-0.29-0.15-0.52-0.35-0.69-0.6c-0.17-0.25-0.3-0.55-0.38-0.89c-0.08-0.34-0.12-0.7-0.12-1.09v-7.33l-2.12,6.42
		c-0.23,0.66-0.5,1.25-0.82,1.75c-0.32,0.51-0.68,0.89-1.06,1.15c0.23-0.7,0.38-1.42,0.45-2.17c0.07-0.75,0.08-1.49,0.03-2.23
		c-0.05-0.73-0.15-1.46-0.3-2.17C71.75,51.01,71.57,50.34,71.36,49.71z" />
        <path fill="none" d="M24.39,46.76c-0.07,0.23-0.09,0.47-0.08,0.7c0.03-0.29,0.08-0.58,0.14-0.86C24.43,46.65,24.4,46.7,24.39,46.76
		z" />
        <path fill="#00A9D6" d="M33.53,53.36c-0.22,0.14-0.32,0.43-0.6,0.47c-0.19,0.03-0.31,0.15-0.35,0.34c-0.03,0.15,0,0.3-0.05,0.46
		c-0.04,0.13-0.06,0.28-0.12,0.4c-0.08,0.18-0.17,0.41-0.1,0.61c0.01,0.03,0.03,0.05,0.07,0.04c0.07-0.01,0.14-0.08,0.22-0.03
		c0.04,0.03,0.08,0.11,0.14,0.12c0.06,0.01,0.1,0,0.14-0.02c0.04,0.01,0.08,0,0.09-0.05c0.02-0.1,0.11-0.17,0.14-0.27
		c0.06-0.17,0.14-0.33,0.2-0.5c0.04-0.12,0.12-0.22,0.18-0.33c0.09-0.16,0.14-0.34,0.21-0.51c0.05-0.11,0.1-0.22,0.15-0.33
		c0.04-0.09,0.01-0.23,0-0.32C33.82,53.24,33.65,53.29,33.53,53.36z" />
        <path fill="#00A9D6" d="M42.22,50.68c0.11,0.07,0.23,0.22,0.3,0.38c0.03-0.17,0.06-0.34,0.08-0.51c-0.09-0.03-0.19-0.08-0.26-0.14
		C42.1,50.2,42.08,50.6,42.22,50.68z" />
        <path fill="#00A9D6" d="M28.18,41.41c0.08,0,0.15,0,0.22,0.01c0.24,0.05,0.16,0.42-0.07,0.42c-0.07,0-0.14-0.01-0.22-0.02
		c-0.2-0.02-0.25,0.07-0.3,0.25c-0.04,0.14-0.12,0.3-0.25,0.39c-0.1,0.07-0.2,0.04-0.32,0.08c-0.14,0.05-0.28,0.09-0.41,0.17
		c-0.11,0.07-0.21,0.13-0.26,0.25c-0.04,0.1-0.11,0.31,0.03,0.36c0.11,0.04,0.23,0.04,0.35,0.03c0.12-0.01,0.12-0.15,0.19-0.22
		c0.05-0.05,0.11-0.1,0.19-0.11c0.15-0.01,0.28-0.17,0.36-0.29c0.13-0.2,0.2-0.24,0.44-0.24c0.21,0,0.4-0.08,0.61-0.06
		c0.02,0,0.05,0.02,0.04,0.04c0,0,0,0.01,0,0.01c0.03,0,0.06,0.02,0.06,0.06c0.03,0.21,0.23,0.33,0.28,0.53
		c0.02,0.08,0.03,0.16,0.03,0.25c0,0.04,0,0.08,0,0.13c0.05,0.02,0.07,0.01,0.06-0.05c0-0.07,0.03-0.15,0.12-0.16
		c0.03,0,0.06-0.01,0.09,0c-0.02-0.04-0.04-0.07-0.07-0.1c-0.04-0.06-0.06-0.14-0.1-0.19c-0.1-0.14-0.39-0.49-0.11-0.63
		c0.09-0.05,0.21-0.06,0.27,0.04c0.03,0.05,0.05,0.1,0.05,0.15c0,0.11,0.11,0.11,0.19,0.14c0.1,0.04,0.24,0.13,0.22,0.26
		c-0.02,0.19-0.13,0.33,0.03,0.5c0.11,0.11,0.02,0.23,0.02,0.35c0,0.18,0.19,0.05,0.25-0.03c0.06-0.09,0.05-0.02,0.02-0.08
		c-0.01-0.01-0.01-0.03,0.01-0.03c-0.16-0.07-0.19-0.46,0.03-0.47c0.05,0,0.1,0.01,0.15,0.02c0.1,0.03,0.14,0.01,0.24-0.03
		c0.1-0.04,0.16-0.03,0.23,0.05c0.02,0.02,0.02,0.05,0.01,0.08c-0.03,0.1-0.06,0.17-0.13,0.25c-0.01,0.01-0.07,0.04-0.07,0.04
		c0.02,0.06,0.04,0.12,0.07,0.16c0.14,0.22,0.45-0.08,0.61,0.12C31.38,43.9,31.41,44,31.5,44c0.06,0,0.14-0.01,0.19-0.04
		c0.08-0.03,0.15-0.06,0.23-0.07c0.13,0,0.13,0.09,0.11,0.19c0.04,0.13-0.02,0.28-0.09,0.39c-0.04,0.06-0.09,0.12-0.13,0.17
		c-0.08,0.09-0.09,0.17-0.1,0.29c-0.01,0.11-0.09,0.19-0.19,0.21c-0.03,0.01-0.06,0-0.08-0.01c-0.02,0.02-0.05,0.03-0.08,0
		c-0.06-0.06-0.12-0.12-0.16-0.2c-0.06-0.11-0.11-0.08-0.21-0.09c-0.17-0.01-0.35-0.03-0.53-0.04c-0.21-0.02-0.36-0.11-0.55-0.19
		c-0.15-0.06-0.38-0.18-0.55-0.09c-0.09,0.04-0.03,0.23-0.1,0.31c-0.08,0.09-0.16,0.1-0.27,0.05c-0.07-0.03-0.1-0.1-0.15-0.15
		c-0.04-0.04-0.15-0.1-0.22-0.12c-0.11-0.04-0.23-0.19-0.29-0.28c-0.04-0.07-0.07-0.15-0.04-0.23c0.03-0.08,0.12-0.18,0.12-0.27
		c-0.01-0.23-0.19-0.1-0.31-0.06c-0.12,0.05-0.24,0.1-0.36,0.13C27.63,43.95,27.52,44,27.4,44c-0.13,0-0.26-0.01-0.39-0.01
		c-0.25,0.01-0.45,0.12-0.66,0.22c-0.1,0.05-0.2,0.12-0.31,0.17c-0.06,0.02-0.2,0-0.24,0.04c-0.06,0.06-0.08,0.09-0.17,0.09
		c-0.09,0-0.19,0.1-0.27,0.14c-0.08,0.04-0.19,0.1-0.22,0.2c-0.01,0.03,0,0.07-0.02,0.1c-0.03,0.08-0.08,0.15-0.12,0.22
		c-0.12,0.23-0.23,0.52-0.28,0.77c-0.05,0.22-0.15,0.43-0.22,0.64c-0.06,0.28-0.1,0.57-0.14,0.86c0,0.07,0,0.13,0.01,0.2
		c0.05,0.27,0.19,0.53,0.29,0.79c0.05,0.12,0.14,0.21,0.2,0.32c0.05,0.09,0.11,0.23,0.2,0.3c0.12,0.1,0.2,0.18,0.37,0.18
		c0.2,0,0.15-0.18,0.15-0.31c0-0.14,0.07-0.23,0.21-0.26c0.16-0.04,0.52,0.17,0.5,0.36c0.02,0.06,0.06,0.11,0.08,0.17
		c0.01,0.04-0.01,0.1,0.02,0.13c0.1,0.1,0.2,0.14,0.33,0.17c0.19,0.04,0.3,0.13,0.31,0.34c0,0.11-0.02,0.2-0.1,0.27
		c-0.08,0.06-0.08,0.17-0.07,0.27c0,0.12,0.04,0.24,0.04,0.35c0,0.12,0,0.23,0.13,0.27c0.41,0.15,0.59,0.61,0.63,1.01
		c0.01,0.13,0.06,0.25,0.08,0.38c0.02,0.13,0.02,0.25,0.01,0.38c-0.02,0.26-0.05,0.56,0.09,0.79c0.15,0.24,0.29,0.51,0.41,0.76
		c0.07,0.14,0.13,0.27,0.22,0.4c0.08,0.1,0.16,0.21,0.23,0.32c0.12,0.2,0.24,0.42,0.45,0.54c0.07,0.04,0.14,0.11,0.19,0.18
		c0.07,0.1,0.16,0.17,0.23,0.26c0.05,0.06,0.1,0.12,0.14,0.19c0.02,0.04,0.03,0.1,0.05,0.14c0.06,0.09,0.14,0.14,0.22,0.21
		c0.07,0.07,0.14,0.13,0.22,0.19c0.05,0.04,0.1,0.16,0.15,0.16c0.13,0,0.32,0.04,0.44-0.01c0.11-0.04,0.18-0.13,0.26-0.21
		c0.07-0.07,0.2-0.18,0.2-0.3c0-0.12,0.03-0.24,0.04-0.36c0.01-0.2,0.06-0.4,0.13-0.59c0.04-0.1,0.05-0.18,0.07-0.28
		c0.02-0.12,0.07-0.16,0.12-0.27c0.06-0.12,0.15-0.09,0.23-0.19c0.08-0.1,0.13-0.2,0.18-0.32c0.09-0.21,0.24-0.41,0.3-0.63
		c0.04-0.15,0.03-0.31,0.04-0.47c0.01-0.15,0.02-0.3-0.01-0.45c-0.04-0.26-0.14-0.51-0.15-0.77c-0.01-0.42,0.01-0.68,0.31-0.99
		c0.03-0.04,0.16-0.14,0.17-0.15c0.08-0.11,0.18-0.22,0.32-0.25c0.09-0.02,0.17-0.09,0.25-0.14c0.07-0.04,0.15-0.08,0.22-0.13
		c0.27-0.19,0.54-0.39,0.76-0.65c0.13-0.15,0.21-0.33,0.3-0.5c0.08-0.15,0.13-0.28,0.14-0.44c-0.2-0.09-0.5,0.15-0.68,0.22
		c-0.1,0.04-0.28,0.14-0.39,0.1c-0.31-0.09-0.66-0.31-0.84-0.58c-0.1-0.14-0.22-0.26-0.31-0.4c-0.04-0.06-0.03-0.15-0.05-0.22
		c-0.02-0.07-0.06-0.13-0.09-0.19c-0.03-0.06-0.05-0.12-0.06-0.18c-0.02-0.1-0.08-0.17-0.14-0.25c-0.09-0.12-0.15-0.27-0.2-0.41
		c-0.04-0.12,0-0.26-0.06-0.38c-0.05-0.1-0.1-0.19-0.14-0.3c-0.08-0.21-0.15-0.44-0.16-0.67c-0.02-0.34,0.36-0.46,0.57-0.22
		c0.15,0.17,0.21,0.37,0.33,0.55c0.13,0.2,0.13,0.46,0.25,0.67c0.12,0.22,0.23,0.45,0.34,0.67c0.08,0.18,0.27,0.38,0.25,0.59
		c-0.01,0.11-0.05,0.24,0.05,0.32c0.05,0.04,0.1,0.07,0.15,0.09c0.14,0.05,0.27,0.06,0.4-0.01c0.1-0.05,0.19-0.12,0.3-0.16
		c0.11-0.04,0.22-0.06,0.32-0.11c0.12-0.05,0.26-0.11,0.36-0.2c0.08-0.08,0.11-0.08,0.22-0.12c0.09-0.04,0.13-0.12,0.22-0.16
		c0.1-0.04,0.2-0.07,0.3-0.11c0.13-0.05,0.23-0.11,0.33-0.21c0.08-0.09,0.12-0.19,0.18-0.29c0.03-0.04,0.06-0.08,0.09-0.12
		c0.08-0.09-0.06-0.24-0.13-0.28c-0.09-0.05-0.19-0.07-0.28-0.11c-0.08-0.04-0.14-0.09-0.19-0.16c-0.01-0.02-0.03-0.05-0.03-0.08
		c0-0.09-0.1-0.07-0.14-0.01c-0.08,0.12-0.1,0.24-0.25,0.3c-0.02,0.01-0.03,0.01-0.04,0c-0.11,0.07-0.25,0.01-0.38,0.01
		c-0.13,0-0.11-0.25-0.11-0.33c0-0.02,0.03-0.17-0.02-0.16c-0.04,0.01-0.08,0.02-0.12,0.03c-0.07,0.01-0.12-0.02-0.17-0.06
		c-0.01-0.01-0.03-0.03-0.03-0.05c0-0.07-0.03-0.12-0.06-0.19c-0.06-0.11-0.12-0.15-0.24-0.16c-0.04,0-0.07-0.04-0.07-0.08
		c0.01-0.32,0.29-0.42,0.57-0.34c0.13,0.04,0.27,0.16,0.37,0.26c0.14,0.12,0.34,0.33,0.54,0.28c0.11-0.03,0.23-0.07,0.33,0.01
		c0.08,0.06,0.08,0.16,0.12,0.24c0.05,0.1,0.38,0.02,0.49,0.02c0.2,0,0.41,0,0.61,0.01c0.17,0.01,0.42,0,0.58,0.09
		c0.14,0.08,0.3,0.19,0.4,0.32c0.08,0.1,0.16,0.21,0.25,0.28c0.08,0.06,0.16,0.11,0.22,0.18c0.11,0.11,0.17,0.27,0.22,0.41
		c0.07,0.18,0.08,0.43,0.2,0.59c0.08,0.1,0.16,0.21,0.2,0.33c0.07,0.21,0.03,0.43,0.14,0.63c0.06,0.11,0.14,0.22,0.17,0.34
		c0.01,0.04,0.02,0.08,0.03,0.12c0.02-0.01,0.05,0,0.07,0.02c0.05-0.03,0.06-0.08,0.06-0.17c0-0.06,0.01-0.11,0.04-0.16
		c0.05-0.08,0.12-0.12,0.18-0.19c0.1-0.12,0.09-0.24,0.08-0.38c-0.02-0.22-0.06-0.46-0.03-0.68c0.03-0.18,0.12-0.3,0.25-0.41
		c0.08-0.07,0.17-0.15,0.23-0.24c0.04-0.08,0.11-0.13,0.15-0.2c0.08-0.13,0.23-0.3,0.38-0.35c0.13-0.04,0.34,0,0.45,0.06
		c0.12,0.06,0.18,0.19,0.22,0.31c0.03,0.1,0.04,0.2,0.06,0.3c0.02,0.17,0.1,0.23,0.24,0.31c0.17,0.1,0.33,0.2,0.44,0.36
		c0.13,0.18,0.21,0.36,0.25,0.58c0.01,0.07,0.04,0.15,0.01,0.21c0.04-0.07,0.07-0.14,0.09-0.22c0.06-0.25,0.13-0.5,0.05-0.75
		c-0.07-0.21-0.21-0.36-0.31-0.55c-0.07-0.14-0.11-0.32-0.05-0.47c0.06-0.15,0.22-0.2,0.3-0.31c0.01-0.03,0.01-0.06,0.02-0.09
		c-0.9-3.16-3.38-5.66-6.53-6.6c-0.01,0.01-0.03,0.01-0.04,0.02c-0.1,0.06-0.19,0.12-0.31,0.12c-0.29,0.02-0.48,0.27-0.77,0.28
		c-0.09,0-0.21-0.08-0.24-0.16c-0.02-0.05-0.03-0.11-0.05-0.16c-0.05-0.1-0.26-0.02-0.33,0c-0.15,0.05-0.3,0.07-0.45,0.12
		c-0.12,0.05-0.21,0.15-0.32,0.21c-0.1,0.05-0.14,0.17-0.25,0.21c-0.08,0.03-0.16,0.04-0.24,0.02c-0.18-0.03-0.19-0.19-0.1-0.32
		c0.05-0.07,0.15-0.09,0.21-0.13c0.07-0.05-0.05-0.06-0.1-0.08c-0.05-0.02-0.1-0.04-0.14-0.07c-0.07-0.04-0.15-0.04-0.22-0.06
		c-0.08-0.03-0.16-0.09-0.25-0.08c-0.07,0-0.14,0.03-0.2,0.04c0,0,0,0,0,0c-0.16,0.06-0.25,0.12-0.43,0.13
		c-0.18,0.01-0.32,0.09-0.47,0.19c-0.11,0.07-0.2,0.13-0.33,0.13c-0.1,0-0.16,0.09-0.26,0.08c-0.08-0.01-0.2-0.06-0.28-0.02
		c-0.06,0.03-0.13,0.06-0.19,0.08c-0.16,0.05-0.28,0.18-0.39,0.31c-0.04,0.05-0.12,0.21,0.01,0.15c0.04-0.02,0.1-0.02,0.14-0.04
		c0.09-0.04,0.17-0.06,0.27-0.04c0.03,0,0.05,0.03,0.04,0.06c-0.01,0.08-0.04,0.15-0.05,0.23c-0.01,0.1,0.39-0.08,0.43-0.12
		c0.08-0.09,0.12-0.22,0.21-0.3c0.1-0.07,0.21-0.12,0.31-0.18c0.08-0.05,0.32-0.18,0.39-0.04c0.05,0.1-0.02,0.22-0.08,0.3
		c-0.11,0.16-0.23,0.3-0.35,0.45c-0.07,0.08-0.13,0.18-0.24,0.2c-0.11,0.03-0.2-0.02-0.31,0c-0.14,0.02-0.25,0.09-0.37,0.16
		c-0.06,0.03-0.11,0.04-0.18,0.01c-0.05-0.02-0.08-0.09-0.1-0.14c-0.06-0.18-0.25-0.02-0.33,0.07c-0.04,0.05-0.13,0.06-0.19,0.07
		c-0.14,0.01-0.17,0.08-0.25,0.16c-0.07,0.08-0.16,0.13-0.25,0.04c-0.11-0.12,0.05-0.28,0.09-0.39c0.04-0.11,0.06-0.22,0.06-0.33
		c-0.01-0.19-0.34,0.09-0.38,0.12c-0.12,0.08-0.25,0.16-0.39,0.23c-0.06,0.03-0.3,0.13-0.3,0.21
		C27.99,41.46,28.07,41.41,28.18,41.41z M34.19,43.21c-0.05-0.03-0.09-0.06-0.12-0.11c-0.09-0.12-0.11-0.47,0-0.58
		c0.13-0.14,0.34-0.21,0.53-0.19c0.12,0.02,0.34,0.14,0.24,0.3c-0.03,0.04-0.06,0.08-0.09,0.11c-0.01,0.02-0.19,0.2-0.1,0.21
		c0.1,0.01,0.18-0.01,0.26,0.05c0.03,0.02,0.06,0.08,0.06,0.12c0,0.06-0.01,0.13,0,0.19c0.01,0.04,0.03,0.08,0.05,0.12
		c0.04,0.13,0,0.14-0.05,0.23c0.04,0.18,0.07,0.39-0.17,0.43c-0.24,0.04-0.71-0.06-0.81-0.32c-0.04-0.12,0.06-0.18,0.14-0.24
		C34.22,43.41,34.37,43.33,34.19,43.21z M31.05,42.72c0.11-0.15,0.29-0.18,0.42-0.31c0.09-0.09,0.19-0.16,0.31-0.12
		c0.09,0.03,0.12,0.15,0.13,0.23c0.01,0.04,0.02,0.09,0.03,0.13c0,0.01,0.1,0.16,0.11,0.09c0.01-0.05,0.01-0.11,0.02-0.16
		c0.02-0.07,0.11-0.15,0.18-0.11c0.05,0.04,0.07,0.07,0.09,0.13c0.02,0.12,0.13,0.13,0.24,0.12c0.05,0,0.12-0.01,0.18-0.01
		c0.05-0.02,0.1-0.03,0.14-0.03c0.09,0.01,0.12,0.12,0.11,0.19c0,0.01,0,0.01,0,0.02c0.01,0.06,0.01,0.12-0.01,0.17
		c-0.01,0.06-0.03,0.11-0.09,0.15c-0.14,0.09-0.23,0.13-0.37,0.01c-0.11-0.1-0.2-0.2-0.36-0.22c-0.12-0.01-0.25-0.01-0.38-0.02
		c-0.13-0.01-0.22,0.02-0.33,0.09c-0.06,0.04-0.12,0.08-0.19,0.09C31,43.28,30.88,42.95,31.05,42.72z" />
        <path fill="#00A9D6" d="M33.22,29c0,0-2.08,0.26-3.02-0.9c-1.34-1.64-2.48-4.16-4.35-3.59c-1.27,0.38-2.23,0.82-2.23,0.82
		s1.61,0.05,2.81,1.46C27.67,28.26,29,31.33,33.22,29z" />
        <path fill="#00A9D6" d="M13.1,24.72c0,0,2.04,1.62,5.55,0.49C18.64,25.21,13.02,27.74,13.1,24.72z" />
        <path fill="#E9A15B" d="M4.8,27.15c-0.01,0-0.02,0-0.03-0.01c0,0,0.02,0.01,0.05,0.04C4.82,27.17,4.81,27.16,4.8,27.15z" />
        <path fill="#00A9D6" d="M34.83,37.59c-0.01,0-0.03,0-0.04,0c-0.9,0.3-3.76,1.17-4.15,0.46c-0.45-0.82,2.23-3.43,2.33-3.53
		c0.06-0.09,0.14-0.18,0.22-0.28c0.1-0.13,0.21-0.26,0.33-0.4c0.07-0.08,0.14-0.16,0.22-0.24c0.21-0.23,0.43-0.46,0.69-0.71
		c3.62-3.51,0.53-2.76-2.11-1.87c-1.38,0.37-3.34,0.98-4.46-0.58c-3.14-4.9-8.22-4.19-12.09-3.11c-0.46,0.13-0.9,0.24-1.33,0.34
		c-0.14,0.03-0.27,0.05-0.4,0.08c-0.29,0.06-0.57,0.12-0.84,0.17c-0.15,0.03-0.29,0.05-0.43,0.07c-0.25,0.04-0.49,0.07-0.72,0.1
		c-0.14,0.02-0.27,0.03-0.41,0.04c-0.23,0.02-0.45,0.04-0.66,0.06c-0.12,0.01-0.24,0.02-0.36,0.02c-0.22,0.01-0.43,0.02-0.63,0.02
		c-0.1,0-0.21,0-0.3,0c-0.22,0-0.42-0.01-0.62-0.02c-0.07,0-0.15-0.01-0.22-0.01c-0.24-0.02-0.46-0.04-0.68-0.06
		c-0.03,0-0.05-0.01-0.08-0.01c-0.5-0.06-0.94-0.15-1.32-0.24c-0.02-0.01-0.04-0.01-0.06-0.02c-0.16-0.04-0.32-0.08-0.46-0.13
		c-0.04-0.01-0.07-0.02-0.11-0.04c-0.12-0.04-0.23-0.08-0.33-0.11c-0.04-0.01-0.08-0.03-0.11-0.04c-0.09-0.03-0.17-0.07-0.24-0.1
		c-0.04-0.02-0.07-0.03-0.11-0.05c-0.06-0.03-0.12-0.05-0.17-0.08c-0.03-0.02-0.07-0.03-0.1-0.05c-0.04-0.02-0.07-0.04-0.1-0.05
		c-0.14-0.08-0.22-0.14-0.22-0.14c0.88,1.23,1.95,2.01,3.13,2.45c-1.49,0.04-2.04-0.28-2.04-0.28c0.02,0.02,0.03,0.04,0.05,0.07
		c0.77,0.54,3.91,2.51,7.7,1.56c2.43-0.61,1.74-0.41,1.74-0.41s-2.77,2.06-5.67,1.6c2.1,2.22,8.43,0.14,12.85-1.79
		c1.7-0.75,3.01-0.92,3.68-0.19c0.67,0.74,2.49,2.3,4.65,1.69c1.2-0.34,2.96,0.17-2.69,5.38c-1.52,1.4-1.89,3.06-1.47,3.31
		c0.15-0.44,1.88-1.76,2.49-2.33c1.11-1.03,0.27,0.4,0.74,0.9c0.34,0.36,1.09,0.21,1.5,0.1c1.01-0.39,2.02-0.84,2.69-1.16
		c-0.02,0.01-0.05,0.03-0.07,0.04c-1.2,0.76-1.52,0.74-1.52,0.74s0.81,0.14,1.66-0.48c1.01-0.74,2.01-0.95,2.01-0.95
		S35.68,37.24,34.83,37.59z" />
        <path fill="#E9A15B" d="M24.79,40.64c1.26-1.71,0.68,1.53,2.2-0.08c0.84-0.7,1.22-0.93,0.92-0.19c-0.02,0.05-0.78,0.83-0.74,0.87
		c-2.23,1.77-3.63,4.54-3.63,7.61c0,5.34,4.33,9.68,9.68,9.68c5.34,0,9.68-4.33,9.68-9.68c0-4.98-3.77-9.08-8.6-9.61
		c0.15-0.07,0.29-0.13,0.43-0.21c0.51-0.28,1.4-0.89,2.04-1.4c4.77,1.5,8.23,5.96,8.23,11.22c0,3.14-1.22,6.1-3.45,8.32
		c-2.22,2.22-5.18,3.45-8.32,3.45c-6.49,0-11.76-5.28-11.76-11.76C21.45,45.76,22.64,42.85,24.79,40.64z" />
        <path fill="#E9A15B" d="M38.05,28.92c0,0-0.51-1.35-2.69-0.48c-2.18,0.87-5.67,3.13-7.41,1.04c-1.74-2.1-3.36-4.93-8.65-3.72
		c-6.11,1.4-9.71,2.5-14.42,1.41c0.67,0.4,4.03,2.08,10.89,0.16c3.87-1.08,8.95-1.8,12.09,3.11c1.12,1.56,3.08,0.96,4.46,0.58
		c2.64-0.89,5.73-1.64,2.11,1.87c-0.66,0.63-1.12,1.17-1.46,1.65c0.01-0.01,0.01-0.02,0.02-0.03c0,0-2.79,2.7-2.33,3.54
		c0.46,0.84,4.42-0.56,4.42-0.56s-4.39,0.45-2.13-2.92c1.77-1.69,3.91-3.66,4.7-4.01c1.42-0.64,2.56,0.11,2.56,0.11
		S40.72,28.55,38.05,28.92z" />
    </g>
</svg>
